<?xml version="1.0" standalone="no"?>
<!DOCTYPE svg PUBLIC "-//W3C//DTD SVG 20010904//EN"
 "http://www.w3.org/TR/2001/REC-SVG-20010904/DTD/svg10.dtd">
<svg version="1.0" xmlns="http://www.w3.org/2000/svg"
 width="566.000000pt" height="550.000000pt" viewBox="0 0 566.000000 550.000000"
 preserveAspectRatio="xMidYMid meet">

<g transform="translate(0.000000,550.000000) scale(0.100000,-0.100000)"
fill="#000000" stroke="none">
<path d="M2866 4933 c-13 -14 -5 -33 14 -33 11 0 20 6 20 14 0 15 -24 28 -34
19z"/>
<path d="M2925 4931 c-8 -15 3 -31 21 -31 9 0 14 7 12 17 -4 20 -24 28 -33 14z"/>
<path d="M2487 4924 c-3 -3 -2 -18 3 -32 5 -15 20 -80 35 -144 23 -103 29
-118 47 -118 14 0 18 5 14 15 -3 8 -17 68 -31 133 -15 64 -28 125 -31 135 -5
17 -25 23 -37 11z"/>
<path d="M2386 4902 c-3 -5 10 -67 30 -137 37 -138 37 -145 -17 -145 -23 0
-28 7 -44 60 -10 33 -24 65 -31 71 -14 11 -90 3 -98 -10 -3 -4 6 -42 19 -84
l23 -76 -24 -15 c-13 -9 -27 -16 -32 -16 -5 0 -20 27 -35 60 -31 74 -57 87
-116 62 -44 -18 -59 -50 -18 -37 71 22 74 21 102 -41 14 -32 22 -60 18 -61 -4
-2 -38 -18 -75 -37 l-68 -34 -67 117 c-36 64 -68 118 -69 120 -2 2 -10 1 -18
-2 -12 -5 1 -35 61 -140 l77 -134 45 23 c123 61 256 116 344 141 53 15 97 32
97 38 0 5 -17 70 -38 144 -34 124 -51 157 -66 133z m-65 -227 c24 -67 23 -77
-3 -73 -17 2 -26 15 -39 60 -9 31 -14 60 -11 63 16 15 37 -5 53 -50z"/>
<path d="M2859 4836 c-8 -16 -8 -48 -3 -97 l9 -74 108 -2 c204 -3 460 -46 632
-106 l40 -14 47 136 c27 75 48 142 48 149 0 26 -30 11 -39 -20 -17 -56 -70
-208 -76 -218 -6 -9 -61 6 -70 20 -2 4 5 40 16 80 16 58 17 75 7 81 -16 10
-22 -1 -42 -80 -9 -36 -19 -67 -21 -69 -7 -8 -95 20 -95 30 0 5 7 41 16 79 9
39 13 73 10 76 -15 16 -33 -12 -45 -69 -7 -35 -15 -69 -19 -75 -5 -7 -24 -7
-65 1 l-57 10 5 61 c4 33 8 70 11 83 3 17 0 22 -16 22 -12 0 -20 -7 -21 -17 0
-27 -9 -105 -14 -128 -4 -19 -10 -20 -52 -15 l-48 5 3 60 c2 33 5 72 8 88 5
22 2 27 -14 27 -15 0 -21 -9 -26 -46 -3 -26 -6 -62 -6 -80 0 -42 -8 -46 -70
-38 l-50 7 0 62 c0 88 -4 95 -56 95 -37 0 -46 -4 -55 -24z m71 -77 c0 -62 -2
-70 -17 -67 -14 2 -19 15 -21 61 -3 57 10 93 29 81 5 -3 9 -37 9 -75z"/>
<path d="M2660 4841 c-30 -8 -34 -29 -25 -128 l7 -73 38 5 38 5 7 -46 c5 -35
10 -44 23 -42 10 2 16 12 15 23 -1 11 -7 72 -14 135 -6 63 -13 118 -16 123 -5
8 -38 8 -73 -2z m51 -111 c4 -49 2 -55 -16 -55 -17 0 -21 9 -26 60 -5 47 -3
63 10 73 20 16 27 -2 32 -78z"/>
<path d="M3799 4773 c-30 -79 -63 -163 -79 -203 -16 -39 -17 -46 -4 -53 9 -5
17 -7 18 -5 5 7 106 275 106 281 0 19 -32 3 -41 -20z"/>
<path d="M3940 4680 c0 -15 5 -20 18 -18 9 2 17 10 17 18 0 8 -8 16 -17 18
-13 2 -18 -3 -18 -18z"/>
<path d="M3994 4659 c-3 -6 -2 -15 4 -21 13 -13 32 -2 32 18 0 16 -26 19 -36
3z"/>
<path d="M3011 4626 c-8 -10 -8 -16 2 -24 17 -14 42 2 34 22 -8 20 -21 20 -36
2z"/>
<path d="M3067 4623 c-3 -5 -2 -15 3 -22 10 -17 43 -6 38 12 -6 15 -34 22 -41
10z"/>
<path d="M3902 4618 c-5 -7 -26 -45 -45 -85 l-35 -72 66 -31 c36 -17 112 -62
169 -100 l103 -70 54 78 c61 84 62 88 43 95 -8 3 -32 -22 -61 -65 l-48 -69
-36 27 c-21 15 -39 29 -41 30 -2 2 15 33 38 69 43 70 47 80 31 90 -5 3 -30
-26 -55 -65 l-46 -70 -28 16 c-15 9 -38 24 -50 33 l-23 18 25 49 c42 84 42 91
5 114 -38 23 -52 25 -66 8z m54 -41 c7 -20 -44 -117 -62 -117 -27 0 -26 28 2
80 27 49 50 63 60 37z"/>
<path d="M3301 4601 c-15 -10 -8 -41 9 -41 15 0 25 29 14 40 -5 5 -15 5 -23 1z"/>
<path d="M1755 4591 c-8 -15 3 -31 21 -31 9 0 14 7 12 17 -4 20 -24 28 -33 14z"/>
<path d="M3354 4579 c-3 -6 -2 -15 4 -21 13 -13 32 -2 32 18 0 16 -26 19 -36
3z"/>
<path d="M3462 4557 c-10 -11 -9 -17 3 -27 24 -20 45 4 24 26 -14 13 -17 13
-27 1z"/>
<path d="M1804 4532 c-6 -4 -16 -17 -23 -30 -11 -20 -8 -29 19 -73 18 -27 39
-49 49 -49 18 -1 -45 -60 -64 -60 -7 0 -31 27 -55 60 -24 33 -49 60 -56 60 -7
0 -26 -16 -41 -35 -15 -19 -31 -35 -34 -35 -3 0 -20 20 -39 45 -33 44 -60 58
-60 32 0 -7 13 -28 29 -47 15 -19 51 -66 80 -104 l51 -69 -22 -24 c-12 -13
-26 -23 -33 -23 -6 0 -33 23 -60 50 -27 28 -54 50 -60 50 -15 0 -68 -56 -64
-68 7 -17 112 -132 122 -132 5 0 39 29 75 63 37 35 119 100 182 145 63 45 124
88 135 95 19 14 18 16 -28 86 -47 70 -71 85 -103 63z m73 -77 c24 -37 30 -52
21 -62 -17 -21 -25 -16 -62 44 -26 42 -32 59 -23 65 19 12 30 5 64 -47z m-162
-112 l35 -46 -22 -24 c-30 -32 -40 -29 -75 20 -29 40 -30 44 -17 70 20 38 38
34 79 -20z m-178 -150 c42 -44 44 -48 27 -60 -16 -12 -24 -8 -63 31 -29 29
-42 50 -38 60 10 26 27 19 74 -31z"/>
<path d="M1584 4465 c-3 -8 -3 -19 1 -25 10 -16 35 7 28 26 -7 18 -22 18 -29
-1z"/>
<path d="M4230 4264 c-68 -79 -88 -110 -80 -118 9 -8 19 -3 39 22 15 17 32 32
38 32 5 0 67 -58 136 -129 l126 -129 115 100 c103 88 127 118 96 118 -5 0 -47
-32 -92 -72 -46 -39 -91 -78 -101 -87 -15 -13 -20 -12 -42 9 -14 13 -25 28
-25 33 0 5 44 51 98 102 77 74 94 96 85 106 -10 10 -31 -6 -103 -77 -50 -48
-97 -92 -104 -96 -8 -5 -22 2 -36 17 l-23 24 31 38 c16 21 42 49 56 62 20 19
23 27 15 38 -9 10 -23 0 -69 -49 l-58 -63 -41 40 c-23 21 -41 42 -41 46 0 4
22 34 50 67 45 53 52 72 29 72 -5 0 -49 -48 -99 -106z"/>
<path d="M4433 4354 c-7 -19 2 -28 22 -21 19 8 19 23 0 31 -9 3 -18 -1 -22
-10z"/>
<path d="M3937 4354 c-14 -14 -7 -35 11 -32 9 2 17 10 17 17 0 16 -18 25 -28
15z"/>
<path d="M1413 4324 c-8 -21 19 -38 30 -18 9 16 1 34 -14 34 -5 0 -12 -7 -16
-16z"/>
<path d="M3985 4321 c-8 -15 3 -31 21 -31 9 0 14 7 12 17 -4 20 -24 28 -33 14z"/>
<path d="M4473 4314 c-7 -19 11 -39 26 -30 16 10 13 33 -4 40 -9 3 -18 -1 -22
-10z"/>
<path d="M1366 4281 c-3 -5 1 -15 10 -22 13 -10 17 -10 24 1 5 8 6 18 4 22 -7
11 -31 10 -38 -1z"/>
<path d="M4075 4261 c-8 -15 3 -31 21 -31 9 0 14 7 12 17 -4 20 -24 28 -33 14z"/>
<path d="M1265 4054 c-14 -15 -25 -35 -25 -44 0 -10 25 -37 55 -60 60 -46 65
-58 36 -84 -18 -16 -24 -13 -127 59 -59 41 -112 74 -117 72 -22 -7 -3 -27 96
-97 59 -41 106 -80 107 -85 0 -26 -27 -35 -101 -35 -69 0 -80 -3 -93 -22 -9
-12 -16 -29 -16 -38 1 -35 19 -45 94 -50 l75 -5 -32 -62 c-33 -65 -48 -74 -83
-48 -24 18 -44 19 -44 1 0 -18 89 -71 99 -60 9 11 121 204 121 209 0 2 -42 2
-92 2 -81 -2 -93 0 -96 16 -3 15 6 17 77 17 l80 0 35 53 c19 28 58 79 85 112
34 40 46 63 40 70 -7 7 -18 1 -33 -17 -12 -16 -25 -28 -30 -28 -15 0 -96 72
-96 86 0 20 17 26 41 14 35 -19 45 4 13 29 -34 27 -40 27 -69 -5z"/>
<path d="M4754 3995 c-9 -22 5 -38 22 -24 18 15 18 25 -1 33 -9 3 -18 -1 -21
-9z"/>
<path d="M4794 3946 c-4 -10 -2 -22 4 -28 8 -8 13 -7 18 6 4 10 2 22 -4 28 -8
8 -13 7 -18 -6z"/>
<path d="M4613 3904 l-62 -45 55 -81 c65 -97 175 -315 207 -410 l22 -66 93 29
c50 17 92 34 92 39 0 20 -21 19 -91 -5 -40 -14 -76 -22 -80 -18 -4 5 -12 24
-17 44 l-10 37 72 32 c86 40 80 36 73 54 -5 13 -19 9 -83 -21 -62 -30 -77 -34
-85 -22 -14 22 -13 23 64 59 39 19 74 36 76 37 2 1 1 9 -2 17 -5 13 -19 9 -81
-20 -41 -20 -80 -33 -86 -29 -24 15 -5 34 65 66 41 19 74 38 75 42 1 20 -33
15 -95 -14 -66 -30 -69 -31 -82 -13 -22 30 -12 45 55 82 34 18 62 40 62 48 0
21 -13 18 -79 -22 -34 -20 -67 -34 -74 -31 -11 4 -57 78 -57 91 0 1 25 20 55
42 64 45 73 64 48 98 -26 37 -59 32 -130 -20z m105 -5 c2 -14 -78 -79 -97 -79
-5 0 -14 6 -20 14 -9 10 0 21 41 50 53 37 71 40 76 15z"/>
<path d="M4140 3833 c-307 -455 -630 -714 -985 -792 -47 -11 -215 -16 -260 -9
-11 2 -23 8 -27 13 -4 6 -8 1 -8 -10 -1 -19 -1 -19 -14 -2 -18 24 -24 21 -20
-9 5 -48 26 -86 44 -81 15 4 18 -6 19 -79 2 -63 -1 -84 -11 -84 -8 -1 -7 -5 5
-14 16 -12 16 -14 2 -20 -13 -4 -14 -10 -5 -26 9 -16 8 -20 -6 -20 -19 0 -60
41 -67 67 -4 14 -5 13 -6 -5 -1 -23 65 -105 79 -97 3 2 13 -4 22 -13 18 -20
56 -52 63 -52 2 0 16 -11 31 -25 15 -14 30 -25 34 -25 33 0 382 292 565 474
263 260 415 455 524 673 26 53 81 187 81 199 0 16 -22 -7 -60 -63z m-1237
-1150 c-7 -2 -21 -2 -30 0 -10 3 -4 5 12 5 17 0 24 -2 18 -5z"/>
<path d="M4584 3699 c-10 -17 13 -36 27 -22 12 12 4 33 -11 33 -5 0 -12 -5
-16 -11z"/>
<path d="M4621 3650 c-16 -9 -6 -30 15 -30 15 0 20 25 6 34 -4 2 -14 1 -21 -4z"/>
<path d="M2990 3632 c-13 -6 -18 -22 -11 -34 0 -2 2 -85 4 -185 1 -100 5 -185
9 -188 3 -4 2 -20 -2 -36 -5 -16 -6 -29 -2 -29 4 0 0 -5 -8 -10 -12 -8 -10
-10 10 -11 l25 -1 -25 -7 c-21 -6 -16 -8 28 -14 100 -12 208 49 256 145 84
168 -35 379 -212 377 -31 0 -64 -3 -72 -7z"/>
<path d="M816 3495 c-3 -9 0 -18 7 -20 206 -74 272 -94 280 -86 6 6 8 13 5 17
-4 3 -62 25 -130 49 -68 24 -130 46 -139 50 -10 4 -19 0 -23 -10z"/>
<path d="M5032 3433 c2 -10 10 -18 18 -18 8 0 16 8 18 18 2 12 -3 17 -18 17
-15 0 -20 -5 -18 -17z"/>
<path d="M786 3404 c-3 -8 0 -17 7 -19 6 -3 64 -23 127 -45 115 -40 115 -40
113 -71 -2 -47 -12 -51 -83 -35 -76 18 -95 11 -104 -39 -9 -45 -5 -51 41 -59
21 -3 55 -11 76 -17 35 -9 38 -13 32 -37 -10 -42 -18 -45 -95 -32 -84 14 -92
9 -88 -54 3 -45 12 -49 123 -61 l64 -7 3 33 c3 34 3 34 51 31 36 -3 47 0 47
11 0 10 -14 18 -40 22 -22 4 -42 10 -44 14 -4 6 40 198 59 257 8 24 19 19
-157 79 -104 36 -127 41 -132 29z m180 -205 c32 -8 44 -16 44 -30 0 -21 -22
-24 -84 -10 -44 11 -61 24 -52 40 9 14 36 14 92 0z m7 -198 c5 -5 7 -17 3 -26
-5 -13 -14 -15 -53 -9 -59 8 -83 20 -83 41 0 14 9 15 62 9 34 -3 66 -10 71
-15z"/>
<path d="M4927 3266 l-68 -21 5 -38 c7 -40 9 -37 -61 -62 -7 -2 -10 -11 -7
-19 4 -11 12 -13 31 -5 61 23 61 23 89 -194 l6 -48 37 5 c20 3 77 10 126 16
122 15 135 18 135 36 0 11 -8 14 -32 10 -70 -12 -191 -26 -219 -26 -27 0 -29
3 -29 39 0 44 -2 43 98 62 40 7 62 16 62 25 0 17 -17 17 -100 -1 -70 -15 -79
-11 -81 33 -1 12 -2 32 -3 45 -1 19 9 25 77 47 85 26 84 25 57 95 -12 31 -30
31 -123 1z m106 -30 c4 -11 -10 -21 -50 -36 -64 -24 -88 -23 -88 4 0 33 127
62 138 32z"/>
<path d="M4509 3137 c-40 -34 -74 -107 -61 -128 6 -10 8 -19 4 -21 -5 -2 -2
-14 5 -28 7 -14 13 -19 13 -12 0 7 5 10 10 7 6 -3 10 0 10 9 0 8 13 17 31 21
33 8 48 30 30 48 -14 14 -15 84 -1 92 14 9 12 35 -2 35 -7 0 -25 -10 -39 -23z"/>
<path d="M5124 3139 c-10 -17 13 -36 27 -22 12 12 4 33 -11 33 -5 0 -12 -5
-16 -11z"/>
<path d="M5135 3081 c-8 -15 3 -31 21 -31 9 0 14 7 12 17 -4 20 -24 28 -33 14z"/>
<path d="M2763 3058 c2 -7 9 -13 16 -13 6 0 16 -7 21 -15 6 -9 10 -10 10 -3 0
14 -28 43 -42 43 -5 0 -8 -6 -5 -12z"/>
<path d="M3749 2941 c-144 -77 -399 -309 -450 -409 -16 -31 -25 -39 -31 -30
-7 9 -8 8 -6 -6 2 -11 12 -20 22 -22 10 -1 23 -9 28 -16 8 -10 11 -10 15 0 2
6 13 12 23 12 9 0 25 10 34 23 l17 22 -7 -25 c-4 -14 -9 -32 -11 -40 -2 -8 3
-4 11 10 8 14 15 38 16 53 0 16 4 26 10 22 5 -3 7 0 4 8 -3 8 2 21 10 30 9 9
16 20 16 26 0 6 3 11 8 11 4 0 13 14 21 31 21 47 231 256 302 300 29 17 1 17
-32 0z"/>
<path d="M4505 2900 c5 -26 32 -53 45 -45 5 3 10 -1 10 -10 0 -12 -6 -15 -22
-10 -15 5 -20 4 -13 -3 6 -5 19 -12 30 -16 18 -5 20 -1 21 49 l2 55 -38 0
c-34 0 -38 -3 -35 -20z"/>
<path d="M680 2876 c0 -9 3 -16 8 -16 4 -1 70 -7 147 -14 99 -9 142 -10 147
-2 11 17 -11 23 -112 30 -52 4 -116 9 -142 13 -40 5 -48 3 -48 -11z"/>
<path d="M5037 2826 c-116 -12 -143 -31 -42 -31 123 1 235 16 235 31 0 17 -33
17 -193 0z"/>
<path d="M2782 2760 c0 -14 2 -19 5 -12 2 6 2 18 0 25 -3 6 -5 1 -5 -13z"/>
<path d="M2830 2766 c0 -9 5 -16 10 -16 6 0 10 4 10 9 0 6 -4 13 -10 16 -5 3
-10 -1 -10 -9z"/>
<path d="M790 2755 c0 -13 22 -15 140 -15 118 0 140 2 140 15 0 13 -22 15
-140 15 -118 0 -140 -2 -140 -15z"/>
<path d="M802 2678 c-17 -17 -16 -88 2 -88 9 0 16 12 18 33 l3 32 68 3 67 3 0
-46 c0 -33 4 -45 12 -43 8 3 13 25 13 59 l0 54 -85 3 c-58 2 -89 -1 -98 -10z"/>
<path d="M4930 2635 c0 -69 -19 -231 -36 -315 -21 -99 -74 -292 -84 -305 -4
-5 -13 -28 -20 -50 -6 -22 -28 -73 -47 -113 -20 -40 -34 -74 -32 -76 2 -2 63
-33 136 -69 92 -47 133 -62 136 -53 3 8 -36 33 -110 70 -63 32 -117 65 -120
72 -3 8 2 25 11 38 l15 24 64 -20 c35 -12 71 -18 80 -15 20 7 44 44 52 80 10
40 -13 35 -30 -7 -8 -19 -19 -38 -25 -41 -12 -8 -112 24 -122 38 -5 9 1 28 45
130 9 21 17 27 32 22 11 -3 44 -11 73 -17 62 -14 83 -2 85 52 2 32 1 33 -73
54 -41 12 -75 26 -74 31 2 38 31 138 41 142 21 8 121 -17 127 -32 6 -17 -11
-30 -38 -30 -33 0 -29 -23 5 -30 39 -9 59 12 59 62 0 35 -11 40 -113 59 -37 6
-38 8 -35 43 l3 36 88 -3 c70 -2 87 0 87 12 0 10 -20 16 -80 21 -44 4 -83 11
-85 16 -3 4 -3 31 1 59 l7 50 67 0 c91 0 100 4 100 49 0 54 -13 61 -107 61
l-83 0 0 -45z m158 -7 c-2 -19 -10 -24 -47 -26 -62 -5 -91 4 -91 28 0 18 7 20
71 20 67 0 70 -1 67 -22z m-115 -529 c36 -9 49 -31 27 -44 -13 -8 -109 13
-128 28 -9 7 -10 13 0 24 12 14 17 14 101 -8z"/>
<path d="M5162 2658 c7 -19 38 -22 38 -4 0 10 -9 16 -21 16 -12 0 -19 -5 -17
-12z"/>
<path d="M5160 2597 c0 -19 10 -27 26 -20 21 8 17 33 -6 33 -11 0 -20 -6 -20
-13z"/>
<path d="M4857 2534 c-14 -14 -7 -35 11 -32 9 2 17 10 17 17 0 16 -18 25 -28
15z"/>
<path d="M3530 2494 c-41 -22 -61 -53 -54 -83 9 -37 20 -46 38 -32 11 9 42 12
101 10 74 -4 86 -2 91 14 9 29 -5 54 -46 81 -44 29 -90 32 -130 10z"/>
<path d="M4851 2470 c-16 -9 -6 -30 15 -30 15 0 20 25 6 34 -4 2 -14 1 -21 -4z"/>
<path d="M845 2405 c-77 -13 -141 -24 -142 -24 -2 -1 -3 -8 -3 -17 0 -12 7
-14 28 -10 15 3 72 12 127 21 138 21 145 23 145 40 0 8 -3 15 -7 14 -5 -1 -71
-12 -148 -24z"/>
<path d="M4524 2393 c-16 -77 -81 -249 -126 -333 -119 -226 -249 -377 -457
-532 -97 -73 -198 -127 -366 -199 -22 -9 -122 -39 -195 -58 -83 -22 -214 -36
-320 -35 -121 1 -278 11 -291 19 -4 3 -25 8 -45 11 -28 3 -41 -1 -54 -16 -21
-24 -30 -25 -30 -5 0 8 5 15 11 15 8 0 7 5 -2 16 -12 14 -14 13 -21 -6 -6 -16
-14 -21 -28 -17 -25 6 -36 -9 -13 -17 12 -5 14 -9 5 -18 -7 -7 -12 -15 -12
-18 0 -13 49 -29 71 -23 15 4 20 3 15 -5 -9 -15 -66 -16 -66 -2 0 6 -5 10 -11
10 -16 0 -38 -26 -31 -37 11 -15 51 -35 86 -40 17 -3 36 -8 41 -13 6 -4 33
-11 60 -14 28 -4 75 -11 105 -15 30 -5 132 -9 225 -9 193 -1 296 15 469 73
535 179 941 633 1052 1175 21 103 17 120 -30 120 -31 0 -36 -4 -42 -27z
m-1914 -1253 c0 -5 -7 -10 -16 -10 -8 0 -12 5 -9 10 3 6 10 10 16 10 5 0 9 -4
9 -10z"/>
<path d="M840 2308 c-69 -11 -127 -22 -129 -24 -3 -3 0 -9 6 -15 8 -8 48 -5
139 10 71 11 132 17 136 13 3 -4 8 -23 10 -41 l3 -35 -78 -24 c-86 -26 -89
-33 -46 -94 21 -31 19 -33 -51 -54 -32 -9 -50 -20 -50 -30 0 -10 6 -14 18 -10
150 44 233 66 244 66 14 0 41 -57 33 -71 -3 -4 -37 -20 -75 -35 -39 -15 -70
-33 -70 -41 0 -18 7 -17 78 12 34 14 68 25 75 25 12 0 47 -64 47 -87 0 -5 -31
-23 -70 -38 -38 -15 -70 -34 -70 -42 0 -19 10 -17 85 17 37 17 69 30 71 30 3
0 12 -15 20 -32 8 -18 30 -58 48 -89 19 -31 31 -61 27 -67 -10 -16 -111 -63
-121 -57 -16 10 -11 34 9 47 29 18 16 40 -15 26 -32 -15 -41 -51 -20 -83 21
-32 38 -31 103 5 29 17 57 30 63 30 5 0 17 -12 27 -26 17 -26 16 -27 -9 -48
-14 -11 -44 -34 -67 -49 -25 -18 -38 -33 -35 -42 5 -11 21 -4 69 30 34 25 67
45 72 45 11 0 73 -75 72 -87 0 -4 -22 -26 -49 -48 -61 -50 -69 -69 -39 -101
33 -35 57 -29 123 31 l59 54 -39 47 c-132 158 -248 356 -328 559 -37 92 -92
270 -98 315 -4 33 -21 33 -178 8z m193 -162 c12 -35 -5 -51 -64 -61 -34 -6
-42 -3 -59 17 -29 35 -24 46 28 62 64 20 84 17 95 -18z m404 -753 c2 -6 -12
-26 -32 -45 -46 -41 -62 -51 -75 -43 -19 12 -10 33 31 69 39 36 68 43 76 19z"/>
<path d="M2915 2178 c-145 -115 -331 -308 -412 -429 -65 -98 -102 -173 -90
-185 2 -2 30 29 61 71 122 162 278 286 410 327 103 31 220 23 318 -24 133 -64
253 -171 374 -335 32 -43 59 -72 62 -65 6 20 -73 171 -129 247 -71 94 -304
325 -408 403 -45 34 -86 62 -89 62 -4 0 -47 -33 -97 -72z"/>
<path d="M1161 1990 c-16 -9 -6 -30 15 -30 15 0 20 25 6 34 -4 2 -14 1 -21 -4z"/>
<path d="M4714 1959 c-10 -17 13 -36 27 -22 12 12 4 33 -11 33 -5 0 -12 -5
-16 -11z"/>
<path d="M2950 1928 c-59 -31 -83 -76 -76 -143 4 -43 11 -55 46 -86 50 -46 94
-55 149 -33 76 30 115 112 86 181 -20 49 -42 71 -84 89 -46 19 -70 18 -121 -8z"/>
<path d="M1207 1894 c-14 -14 -7 -35 11 -32 9 2 17 10 17 17 0 16 -18 25 -28
15z"/>
<path d="M1224 1829 c-7 -12 15 -31 28 -23 4 3 8 12 8 20 0 17 -26 19 -36 3z"/>
<path d="M4665 1710 c-4 -6 1 -17 11 -25 38 -27 230 -135 242 -135 31 0 4 24
-85 76 -54 31 -112 65 -130 76 -21 13 -34 15 -38 8z"/>
<path d="M1371 1596 c-12 -14 -5 -26 16 -26 15 0 18 26 4 34 -5 3 -14 0 -20
-8z"/>
<path d="M1404 1549 c-10 -17 13 -36 27 -22 12 12 4 33 -11 33 -5 0 -12 -5
-16 -11z"/>
<path d="M2480 1316 c0 -2 11 -6 25 -8 14 -3 25 -1 25 3 0 5 -11 9 -25 9 -14
0 -25 -2 -25 -4z"/>
<path d="M1233 1293 c-18 -6 -16 -33 1 -33 19 0 31 19 20 30 -5 4 -15 5 -21 3z"/>
<path d="M2555 1270 c-3 -5 -1 -10 4 -10 6 0 11 5 11 10 0 6 -2 10 -4 10 -3 0
-8 -4 -11 -10z"/>
<path d="M2590 1270 c0 -5 7 -10 16 -10 8 0 12 5 9 10 -3 6 -10 10 -16 10 -5
0 -9 -4 -9 -10z"/>
<path d="M1264 1239 c-10 -17 13 -36 27 -22 12 12 4 33 -11 33 -5 0 -12 -5
-16 -11z"/>
<path d="M2439 1177 c5 -5 19 -7 32 -5 20 3 19 5 -9 9 -20 3 -29 2 -23 -4z"/>
<path d="M4230 1175 c-10 -12 -2 -28 49 -91 34 -42 59 -79 56 -82 -2 -3 -56
12 -119 34 -97 32 -116 36 -130 25 -9 -7 -16 -19 -16 -25 0 -7 43 -65 96 -130
93 -113 96 -117 115 -100 10 9 19 18 19 19 0 1 -27 35 -60 75 -32 40 -57 77
-54 81 2 4 54 -10 116 -32 105 -37 112 -39 129 -23 11 10 19 21 19 26 0 14
-184 237 -196 238 -6 0 -17 -7 -24 -15z"/>
<path d="M4834 1058 l-19 -23 23 19 c21 18 27 26 19 26 -2 0 -12 -10 -23 -22z"/>
<path d="M1784 913 c-160 -127 -153 -119 -121 -134 22 -10 30 -8 55 10 17 11
33 21 37 21 4 0 31 -14 60 -32 54 -32 54 -32 48 -73 -5 -37 -3 -42 22 -53 15
-7 28 -11 29 -10 3 4 46 311 46 325 0 7 -13 19 -28 27 -28 14 -30 13 -148 -81z
m104 -45 c-5 -29 -11 -55 -14 -57 -5 -6 -64 20 -71 32 -6 10 64 76 83 77 8 0
9 -15 2 -52z"/>
<path d="M3868 937 c-54 -28 -98 -56 -98 -61 0 -9 126 -243 142 -263 7 -9 34
1 106 39 118 62 115 60 99 83 -13 17 -18 16 -91 -24 l-76 -41 -20 32 c-11 18
-20 38 -20 45 0 6 28 26 62 45 65 36 73 45 59 66 -6 11 -24 6 -81 -23 -39 -20
-73 -35 -75 -33 -9 11 -25 49 -25 61 0 7 27 26 60 42 34 16 65 34 71 41 9 11
2 44 -10 44 -3 0 -50 -24 -103 -53z"/>
<path d="M2090 880 c-10 -18 -6 -22 35 -40 25 -11 45 -21 45 -22 0 -2 -23 -57
-50 -123 -45 -109 -48 -121 -33 -132 9 -7 22 -13 29 -13 7 0 34 54 60 121 l48
121 31 -7 c55 -13 70 -11 70 9 0 13 -16 24 -60 41 -33 12 -84 32 -112 44 -52
20 -53 20 -63 1z"/>
<path d="M3511 790 c-46 -16 -85 -31 -87 -32 -1 -2 21 -70 48 -151 50 -147 51
-148 77 -142 14 4 28 8 30 11 2 2 -6 29 -18 61 -19 49 -20 58 -7 71 20 20 52
10 115 -38 58 -42 71 -46 102 -29 18 9 17 12 -22 45 -23 19 -51 40 -63 46 -12
6 -23 12 -25 14 -2 2 6 15 18 30 29 37 27 85 -5 118 -34 33 -59 33 -163 -4z
m113 -33 c31 -23 17 -59 -34 -84 -59 -29 -66 -29 -79 8 -17 50 -14 58 37 73
60 18 55 18 76 3z"/>
<path d="M2415 777 c-19 -55 -72 -293 -67 -299 9 -8 222 -61 227 -56 2 1 5 12
7 22 3 17 -9 23 -82 41 -47 11 -85 25 -85 31 1 32 18 84 28 84 7 0 34 -7 61
-15 69 -21 96 -20 96 5 0 19 -1 20 -110 48 -31 8 -35 12 -33 41 0 18 4 35 7
38 3 3 40 -1 81 -10 94 -21 92 -21 98 3 5 21 13 18 -146 59 -57 14 -79 16 -82
8z"/>
<path d="M3185 733 c-33 -9 -74 -43 -90 -73 -36 -69 -5 -192 57 -230 69 -42
174 -15 203 53 16 38 12 47 -21 47 -16 0 -27 -8 -33 -23 -5 -13 -16 -29 -25
-36 -22 -18 -74 -16 -95 4 -20 17 -41 79 -41 118 0 79 81 126 130 77 24 -24
73 -18 68 8 -8 38 -97 71 -153 55z"/>
<path d="M2736 690 c-3 -18 -6 -90 -6 -160 l0 -127 38 -7 c20 -3 74 -6 120 -6
81 0 82 0 82 25 0 25 -1 25 -90 25 l-90 0 0 51 0 51 73 -2 c97 -3 97 -3 97 19
0 16 -10 19 -76 23 -41 3 -80 10 -86 16 -6 6 -7 23 -3 41 l7 32 84 -7 84 -7 0
27 c0 26 -1 26 -69 26 -37 0 -88 3 -113 6 -44 6 -45 6 -52 -26z"/>
</g>
</svg>
